<svg width="0" height="0" class="hidden">
  <symbol fill="#000000" xmlns="http://www.w3.org/2000/svg" xmlns:xlink="http://www.w3.org/1999/xlink" viewBox="0 0 50 50" id="hotel">
    <path d="M12.691406 0L11.564453 2.3320312L9 2.6386719L10.949219 4.3613281L10.435547 7L12.691406 5.6816406L14.949219 7L14.435547 4.3613281L16.384766 2.6386719L13.820312 2.3320312L12.691406 0 z M 14.949219 7L10.435547 7L9.3007812 7C6.3730036 7 4 9.3730039 4 12.300781L4 45 A 1.0001 1.0001 0 0 0 5 46L45 46 A 1.0001 1.0001 0 0 0 46 45L46 12.300781C46 9.3730039 43.626997 7 40.699219 7L39.564453 7L35.050781 7L31.359375 7L26.845703 7L23.154297 7L18.640625 7L14.949219 7 z M 18.640625 7L20.896484 5.6816406L23.154297 7L22.640625 4.3613281L24.589844 2.6386719L22.025391 2.3320312L20.896484 0L19.769531 2.3320312L17.205078 2.6386719L19.154297 4.3613281L18.640625 7 z M 26.845703 7L29.103516 5.6816406L31.359375 7L30.845703 4.3613281L32.794922 2.6386719L30.230469 2.3320312L29.103516 0L27.974609 2.3320312L25.410156 2.6386719L27.359375 4.3613281L26.845703 7 z M 35.050781 7L37.308594 5.6816406L39.564453 7L39.050781 4.3613281L41 2.6386719L38.435547 2.3320312L37.308594 0L36.179688 2.3320312L33.615234 2.6386719L35.564453 4.3613281L35.050781 7 z M 9.3007812 9L40.699219 9C42.571441 9 44 10.428559 44 12.300781L44 44L29 44L29 36 A 1.0001 1.0001 0 0 0 28 35L22 35 A 1.0001 1.0001 0 0 0 21 36L21 44L6 44L6 12.300781C6 10.428559 7.4285592 9 9.3007812 9 z M 10 11 A 1.0001 1.0001 0 0 0 9 12L9 16 A 1.0001 1.0001 0 0 0 10 17L16 17 A 1.0001 1.0001 0 0 0 17 16L17 12 A 1.0001 1.0001 0 0 0 16 11L10 11 z M 22 11 A 1.0001 1.0001 0 0 0 21 12L21 16 A 1.0001 1.0001 0 0 0 22 17L28 17 A 1.0001 1.0001 0 0 0 29 16L29 12 A 1.0001 1.0001 0 0 0 28 11L22 11 z M 34 11 A 1.0001 1.0001 0 0 0 33 12L33 16 A 1.0001 1.0001 0 0 0 34 17L40 17 A 1.0001 1.0001 0 0 0 41 16L41 12 A 1.0001 1.0001 0 0 0 40 11L34 11 z M 11 13L15 13L15 15L11 15L11 13 z M 23 13L27 13L27 15L23 15L23 13 z M 35 13L39 13L39 15L35 15L35 13 z M 10 19 A 1.0001 1.0001 0 0 0 9 20L9 24 A 1.0001 1.0001 0 0 0 10 25L16 25 A 1.0001 1.0001 0 0 0 17 24L17 20 A 1.0001 1.0001 0 0 0 16 19L10 19 z M 22 19 A 1.0001 1.0001 0 0 0 21 20L21 24 A 1.0001 1.0001 0 0 0 22 25L28 25 A 1.0001 1.0001 0 0 0 29 24L29 20 A 1.0001 1.0001 0 0 0 28 19L22 19 z M 34 19 A 1.0001 1.0001 0 0 0 33 20L33 24 A 1.0001 1.0001 0 0 0 34 25L40 25 A 1.0001 1.0001 0 0 0 41 24L41 20 A 1.0001 1.0001 0 0 0 40 19L34 19 z M 11 21L15 21L15 23L11 23L11 21 z M 23 21L27 21L27 23L23 23L23 21 z M 35 21L39 21L39 23L35 23L35 21 z M 10 27 A 1.0001 1.0001 0 0 0 9 28L9 32 A 1.0001 1.0001 0 0 0 10 33L16 33 A 1.0001 1.0001 0 0 0 17 32L17 28 A 1.0001 1.0001 0 0 0 16 27L10 27 z M 22 27 A 1.0001 1.0001 0 0 0 21 28L21 32 A 1.0001 1.0001 0 0 0 22 33L28 33 A 1.0001 1.0001 0 0 0 29 32L29 28 A 1.0001 1.0001 0 0 0 28 27L22 27 z M 34 27 A 1.0001 1.0001 0 0 0 33 28L33 32 A 1.0001 1.0001 0 0 0 34 33L40 33 A 1.0001 1.0001 0 0 0 41 32L41 28 A 1.0001 1.0001 0 0 0 40 27L34 27 z M 11 29L15 29L15 31L11 31L11 29 z M 23 29L27 29L27 31L23 31L23 29 z M 35 29L39 29L39 31L35 31L35 29 z M 10 35 A 1.0001 1.0001 0 0 0 9 36L9 40 A 1.0001 1.0001 0 0 0 10 41L16 41 A 1.0001 1.0001 0 0 0 17 40L17 36 A 1.0001 1.0001 0 0 0 16 35L10 35 z M 34 35 A 1.0001 1.0001 0 0 0 33 36L33 40 A 1.0001 1.0001 0 0 0 34 41L40 41 A 1.0001 1.0001 0 0 0 41 40L41 36 A 1.0001 1.0001 0 0 0 40 35L34 35 z M 11 37L15 37L15 39L11 39L11 37 z M 23 37L27 37L27 44L23 44L23 37 z M 35 37L39 37L39 39L35 39L35 37 z"></path>
  </symbol>
  <symbol xmlns="http://www.w3.org/2000/svg" viewBox="0 0 512 512" id="restaurant">
    <title>ionicons-v5-p</title>
    <path d="M57.49,47.74,425.92,416.17a37.28,37.28,0,0,1,0,52.72h0a37.29,37.29,0,0,1-52.72,0l-90-91.55A32,32,0,0,1,274,354.91v-5.53a32,32,0,0,0-9.52-22.78l-11.62-10.73a32,32,0,0,0-29.8-7.44h0A48.53,48.53,0,0,1,176.5,295.8L91.07,210.36C40.39,159.68,21.74,83.15,57.49,47.74Z"></path>
    <path d="M400,32l-77.25,77.25A64,64,0,0,0,304,154.51v14.86a16,16,0,0,1-4.69,11.32L288,192"></path>
    <path d="M320,224l11.31-11.31A16,16,0,0,1,342.63,208h14.86a64,64,0,0,0,45.26-18.75L480,112"></path>
    <line x1="440" y1="72" x2="360" y2="152"></line>
    <path d="M200,368,100.28,468.28a40,40,0,0,1-56.56,0h0a40,40,0,0,1,0-56.56L128,328"></path>
  </symbol>
  <symbol version="1.1" id="transport" xmlns="http://www.w3.org/2000/svg" xmlns:xlink="http://www.w3.org/1999/xlink" x="0px" y="0px" enable-background="new 0 0 96 96" xml:space="preserve" viewBox="0 0 96 96">
    <path fill="#010101" opacity="1.000000" stroke="none" d="
M58.000000,97.000000 
	C38.666672,97.000000 19.833340,97.000000 1.000008,97.000000 
	C1.000005,65.000008 1.000005,33.000019 1.000003,1.000021 
	C32.999985,1.000014 64.999969,1.000014 96.999969,1.000007 
	C96.999977,32.999981 96.999977,64.999962 96.999985,96.999969 
	C84.166664,97.000000 71.333336,97.000000 58.000000,97.000000 
M11.576697,49.000835 
	C19.225731,49.000809 26.875540,49.056011 34.523071,48.948769 
	C35.865719,48.929943 37.814651,48.659172 38.432499,47.772415 
	C41.539085,43.313747 45.923943,42.098083 50.960949,41.835964 
	C54.888428,41.631584 58.798935,41.101139 62.961487,40.691536 
	C62.961487,36.243599 63.135994,31.941111 62.911728,27.659510 
	C62.693462,23.492388 60.554462,20.039112 56.497238,19.096607 
	C52.730747,18.221638 48.348072,17.591093 44.840832,18.723686 
	C41.689720,19.741274 27.449413,22.742956 25.105698,20.192129 
	C20.648689,15.341261 15.798634,17.792616 11.565091,19.226503 
	C8.957824,20.109575 5.768271,23.591856 5.483824,26.195898 
	C4.666974,33.673946 5.195865,41.298996 5.195865,49.000835 
	C7.298744,49.000835 8.949205,49.000835 11.576697,49.000835 
M32.998928,78.436646 
	C32.541550,81.837646 33.854912,83.106850 37.432892,83.071167 
	C53.545307,82.910484 69.660225,83.001297 85.774246,83.001091 
	C93.499802,83.000992 93.527893,82.970406 92.979919,75.246788 
	C92.491943,68.368866 88.893044,64.998917 82.035400,64.998871 
	C69.077736,64.998795 56.111038,65.278748 43.166855,64.860977 
	C37.994938,64.694061 35.512989,67.092026 34.002766,71.232788 
	C33.285885,73.198341 33.310387,75.434303 32.998928,78.436646 
M81.773232,47.513294 
	C70.046066,43.819084 58.151188,44.498142 46.350933,46.736347 
	C44.314354,47.122631 42.171425,49.921654 41.186676,52.106148 
	C40.028938,54.674400 40.080818,57.787937 39.593102,60.756477 
	C55.428951,60.756477 70.822426,60.756477 87.406998,60.756477 
	C85.580627,56.104069 83.989815,52.051689 81.773232,47.513294 
M25.165489,61.359482 
	C28.436218,61.162518 31.706945,60.965557 35.389820,60.743774 
	C35.790871,58.260963 36.191074,55.783417 36.585625,53.340851 
	C25.816038,53.340851 15.457042,53.340851 4.999081,53.340851 
	C4.999081,57.989941 5.200646,62.310219 4.937237,66.601952 
	C4.714357,70.233353 6.230937,71.184280 9.596121,71.058525 
	C15.230502,70.847954 20.888153,71.185059 26.514845,70.889183 
	C28.210255,70.800026 29.835537,69.377281 31.492943,68.565437 
	C31.324303,68.122002 31.155663,67.678566 30.987020,67.235138 
	C27.773762,66.955315 24.845343,66.351006 25.165489,61.359482 
z"></path>
    <path fill="#FDFDFD" opacity="1.000000" stroke="none" d="
M11.088182,49.000835 
	C8.949205,49.000835 7.298744,49.000835 5.195865,49.000835 
	C5.195865,41.298996 4.666974,33.673946 5.483824,26.195898 
	C5.768271,23.591856 8.957824,20.109575 11.565091,19.226503 
	C15.798634,17.792616 20.648689,15.341261 25.105698,20.192129 
	C27.449413,22.742956 41.689720,19.741274 44.840832,18.723686 
	C48.348072,17.591093 52.730747,18.221638 56.497238,19.096607 
	C60.554462,20.039112 62.693462,23.492388 62.911728,27.659510 
	C63.135994,31.941111 62.961487,36.243599 62.961487,40.691536 
	C58.798935,41.101139 54.888428,41.631584 50.960949,41.835964 
	C45.923943,42.098083 41.539085,43.313747 38.432499,47.772415 
	C37.814651,48.659172 35.865719,48.929943 34.523071,48.948769 
	C26.875540,49.056011 19.225731,49.000809 11.088182,49.000835 
z"></path>
    <path fill="#FDFDFD" opacity="1.000000" stroke="none" d="
M32.998978,77.992203 
	C33.310387,75.434303 33.285885,73.198341 34.002766,71.232788 
	C35.512989,67.092026 37.994938,64.694061 43.166855,64.860977 
	C56.111038,65.278748 69.077736,64.998795 82.035400,64.998871 
	C88.893044,64.998917 92.491943,68.368866 92.979919,75.246788 
	C93.527893,82.970406 93.499802,83.000992 85.774246,83.001091 
	C69.660225,83.001297 53.545307,82.910484 37.432892,83.071167 
	C33.854912,83.106850 32.541550,81.837646 32.998978,77.992203 
M58.755844,72.993965 
	C57.530518,73.094688 56.305191,73.195412 55.076065,73.296448 
	C55.713329,79.065300 57.176605,79.739197 66.274422,79.015068 
	C70.006035,78.718071 71.289490,76.758347 70.840157,72.993958 
	C66.919327,72.993958 63.303276,72.993958 58.755844,72.993965 
M39.962166,70.511253 
	C38.200199,75.848221 39.818420,77.334557 46.660084,76.663277 
	C47.337898,69.822968 45.853771,68.203705 39.962166,70.511253 
M78.999977,72.958992 
	C78.999977,74.233391 78.999977,75.507790 78.999977,76.782181 
	C79.401703,77.204193 79.803429,77.626198 80.205162,78.048210 
	C82.432404,76.653534 84.822197,75.436874 86.731201,73.693687 
	C87.059723,73.393692 85.105560,69.501709 84.613724,69.588211 
	C82.683708,69.927643 80.916924,71.195198 78.999977,72.958992 
z"></path>
    <path fill="#FCFCFC" opacity="1.000000" stroke="none" d="
M82.086121,47.756302 
	C83.989815,52.051689 85.580627,56.104069 87.406998,60.756477 
	C70.822426,60.756477 55.428951,60.756477 39.593102,60.756477 
	C40.080818,57.787937 40.028938,54.674400 41.186676,52.106148 
	C42.171425,49.921654 44.314354,47.122631 46.350933,46.736347 
	C58.151188,44.498142 70.046066,43.819084 82.086121,47.756302 
z"></path>
    <path fill="#FDFDFD" opacity="1.000000" stroke="none" d="
M25.090023,61.788689 
	C24.845343,66.351006 27.773762,66.955315 30.987020,67.235138 
	C31.155663,67.678566 31.324303,68.122002 31.492943,68.565437 
	C29.835537,69.377281 28.210255,70.800026 26.514845,70.889183 
	C20.888153,71.185059 15.230502,70.847954 9.596121,71.058525 
	C6.230937,71.184280 4.714357,70.233353 4.937237,66.601952 
	C5.200646,62.310219 4.999081,57.989941 4.999081,53.340851 
	C15.457042,53.340851 25.816038,53.340851 36.585625,53.340851 
	C36.191074,55.783417 35.790871,58.260963 35.389820,60.743774 
	C31.706945,60.965557 28.436218,61.162518 25.090023,61.788689 
M16.905102,60.114479 
	C15.081441,59.199406 13.257779,58.284336 11.434115,57.369267 
	C10.700682,59.031246 8.975101,61.051422 9.421367,62.287495 
	C10.717692,65.878105 13.952790,65.200462 16.998367,64.687035 
	C16.998367,63.271542 16.998367,62.115314 16.905102,60.114479 
z"></path>
    <path fill="#050505" opacity="1.000000" stroke="none" d="
M59.221535,72.993958 
	C63.303276,72.993958 66.919327,72.993958 70.840157,72.993958 
	C71.289490,76.758347 70.006035,78.718071 66.274422,79.015068 
	C57.176605,79.739197 55.713329,79.065300 55.076065,73.296448 
	C56.305191,73.195412 57.530518,73.094688 59.221535,72.993958 
z"></path>
    <path fill="#0B0B0B" opacity="1.000000" stroke="none" d="
M40.238853,70.235275 
	C45.853771,68.203705 47.337898,69.822968 46.660084,76.663277 
	C39.818420,77.334557 38.200199,75.848221 40.238853,70.235275 
z"></path>
    <path fill="#0C0C0C" opacity="1.000000" stroke="none" d="
M79.044746,72.538513 
	C80.916924,71.195198 82.683708,69.927643 84.613724,69.588211 
	C85.105560,69.501709 87.059723,73.393692 86.731201,73.693687 
	C84.822197,75.436874 82.432404,76.653534 80.205162,78.048210 
	C79.803429,77.626198 79.401703,77.204193 78.999977,76.782181 
	C78.999977,75.507790 78.999977,74.233391 79.044746,72.538513 
z"></path>
    <path fill="#0B0B0B" opacity="1.000000" stroke="none" d="
M16.951735,60.536781 
	C16.998367,62.115314 16.998367,63.271542 16.998367,64.687035 
	C13.952790,65.200462 10.717692,65.878105 9.421367,62.287495 
	C8.975101,61.051422 10.700682,59.031246 11.434116,57.369267 
	C13.257779,58.284336 15.081441,59.199406 16.951735,60.536781 
z"></path>
  </symbol>
</svg>