<svg version="1.1" id="Layer_1" xmlns="http://www.w3.org/2000/svg" xmlns:xlink="http://www.w3.org/1999/xlink" x="0px" y="0px"
	 width="100%" viewBox="0 0 96 96" enable-background="new 0 0 96 96" xml:space="preserve">
<path fill="#010101" opacity="1.000000" stroke="none" 
	d="
M58.000000,97.000000 
	C38.666672,97.000000 19.833340,97.000000 1.000008,97.000000 
	C1.000005,65.000008 1.000005,33.000019 1.000003,1.000021 
	C32.999985,1.000014 64.999969,1.000014 96.999969,1.000007 
	C96.999977,32.999981 96.999977,64.999962 96.999985,96.999969 
	C84.166664,97.000000 71.333336,97.000000 58.000000,97.000000 
M11.576697,49.000835 
	C19.225731,49.000809 26.875540,49.056011 34.523071,48.948769 
	C35.865719,48.929943 37.814651,48.659172 38.432499,47.772415 
	C41.539085,43.313747 45.923943,42.098083 50.960949,41.835964 
	C54.888428,41.631584 58.798935,41.101139 62.961487,40.691536 
	C62.961487,36.243599 63.135994,31.941111 62.911728,27.659510 
	C62.693462,23.492388 60.554462,20.039112 56.497238,19.096607 
	C52.730747,18.221638 48.348072,17.591093 44.840832,18.723686 
	C41.689720,19.741274 27.449413,22.742956 25.105698,20.192129 
	C20.648689,15.341261 15.798634,17.792616 11.565091,19.226503 
	C8.957824,20.109575 5.768271,23.591856 5.483824,26.195898 
	C4.666974,33.673946 5.195865,41.298996 5.195865,49.000835 
	C7.298744,49.000835 8.949205,49.000835 11.576697,49.000835 
M32.998928,78.436646 
	C32.541550,81.837646 33.854912,83.106850 37.432892,83.071167 
	C53.545307,82.910484 69.660225,83.001297 85.774246,83.001091 
	C93.499802,83.000992 93.527893,82.970406 92.979919,75.246788 
	C92.491943,68.368866 88.893044,64.998917 82.035400,64.998871 
	C69.077736,64.998795 56.111038,65.278748 43.166855,64.860977 
	C37.994938,64.694061 35.512989,67.092026 34.002766,71.232788 
	C33.285885,73.198341 33.310387,75.434303 32.998928,78.436646 
M81.773232,47.513294 
	C70.046066,43.819084 58.151188,44.498142 46.350933,46.736347 
	C44.314354,47.122631 42.171425,49.921654 41.186676,52.106148 
	C40.028938,54.674400 40.080818,57.787937 39.593102,60.756477 
	C55.428951,60.756477 70.822426,60.756477 87.406998,60.756477 
	C85.580627,56.104069 83.989815,52.051689 81.773232,47.513294 
M25.165489,61.359482 
	C28.436218,61.162518 31.706945,60.965557 35.389820,60.743774 
	C35.790871,58.260963 36.191074,55.783417 36.585625,53.340851 
	C25.816038,53.340851 15.457042,53.340851 4.999081,53.340851 
	C4.999081,57.989941 5.200646,62.310219 4.937237,66.601952 
	C4.714357,70.233353 6.230937,71.184280 9.596121,71.058525 
	C15.230502,70.847954 20.888153,71.185059 26.514845,70.889183 
	C28.210255,70.800026 29.835537,69.377281 31.492943,68.565437 
	C31.324303,68.122002 31.155663,67.678566 30.987020,67.235138 
	C27.773762,66.955315 24.845343,66.351006 25.165489,61.359482 
z"/>
<path fill="#FDFDFD" opacity="1.000000" stroke="none" 
	d="
M11.088182,49.000835 
	C8.949205,49.000835 7.298744,49.000835 5.195865,49.000835 
	C5.195865,41.298996 4.666974,33.673946 5.483824,26.195898 
	C5.768271,23.591856 8.957824,20.109575 11.565091,19.226503 
	C15.798634,17.792616 20.648689,15.341261 25.105698,20.192129 
	C27.449413,22.742956 41.689720,19.741274 44.840832,18.723686 
	C48.348072,17.591093 52.730747,18.221638 56.497238,19.096607 
	C60.554462,20.039112 62.693462,23.492388 62.911728,27.659510 
	C63.135994,31.941111 62.961487,36.243599 62.961487,40.691536 
	C58.798935,41.101139 54.888428,41.631584 50.960949,41.835964 
	C45.923943,42.098083 41.539085,43.313747 38.432499,47.772415 
	C37.814651,48.659172 35.865719,48.929943 34.523071,48.948769 
	C26.875540,49.056011 19.225731,49.000809 11.088182,49.000835 
z"/>
<path fill="#FDFDFD" opacity="1.000000" stroke="none" 
	d="
M32.998978,77.992203 
	C33.310387,75.434303 33.285885,73.198341 34.002766,71.232788 
	C35.512989,67.092026 37.994938,64.694061 43.166855,64.860977 
	C56.111038,65.278748 69.077736,64.998795 82.035400,64.998871 
	C88.893044,64.998917 92.491943,68.368866 92.979919,75.246788 
	C93.527893,82.970406 93.499802,83.000992 85.774246,83.001091 
	C69.660225,83.001297 53.545307,82.910484 37.432892,83.071167 
	C33.854912,83.106850 32.541550,81.837646 32.998978,77.992203 
M58.755844,72.993965 
	C57.530518,73.094688 56.305191,73.195412 55.076065,73.296448 
	C55.713329,79.065300 57.176605,79.739197 66.274422,79.015068 
	C70.006035,78.718071 71.289490,76.758347 70.840157,72.993958 
	C66.919327,72.993958 63.303276,72.993958 58.755844,72.993965 
M39.962166,70.511253 
	C38.200199,75.848221 39.818420,77.334557 46.660084,76.663277 
	C47.337898,69.822968 45.853771,68.203705 39.962166,70.511253 
M78.999977,72.958992 
	C78.999977,74.233391 78.999977,75.507790 78.999977,76.782181 
	C79.401703,77.204193 79.803429,77.626198 80.205162,78.048210 
	C82.432404,76.653534 84.822197,75.436874 86.731201,73.693687 
	C87.059723,73.393692 85.105560,69.501709 84.613724,69.588211 
	C82.683708,69.927643 80.916924,71.195198 78.999977,72.958992 
z"/>
<path fill="#FCFCFC" opacity="1.000000" stroke="none" 
	d="
M82.086121,47.756302 
	C83.989815,52.051689 85.580627,56.104069 87.406998,60.756477 
	C70.822426,60.756477 55.428951,60.756477 39.593102,60.756477 
	C40.080818,57.787937 40.028938,54.674400 41.186676,52.106148 
	C42.171425,49.921654 44.314354,47.122631 46.350933,46.736347 
	C58.151188,44.498142 70.046066,43.819084 82.086121,47.756302 
z"/>
<path fill="#FDFDFD" opacity="1.000000" stroke="none" 
	d="
M25.090023,61.788689 
	C24.845343,66.351006 27.773762,66.955315 30.987020,67.235138 
	C31.155663,67.678566 31.324303,68.122002 31.492943,68.565437 
	C29.835537,69.377281 28.210255,70.800026 26.514845,70.889183 
	C20.888153,71.185059 15.230502,70.847954 9.596121,71.058525 
	C6.230937,71.184280 4.714357,70.233353 4.937237,66.601952 
	C5.200646,62.310219 4.999081,57.989941 4.999081,53.340851 
	C15.457042,53.340851 25.816038,53.340851 36.585625,53.340851 
	C36.191074,55.783417 35.790871,58.260963 35.389820,60.743774 
	C31.706945,60.965557 28.436218,61.162518 25.090023,61.788689 
M16.905102,60.114479 
	C15.081441,59.199406 13.257779,58.284336 11.434115,57.369267 
	C10.700682,59.031246 8.975101,61.051422 9.421367,62.287495 
	C10.717692,65.878105 13.952790,65.200462 16.998367,64.687035 
	C16.998367,63.271542 16.998367,62.115314 16.905102,60.114479 
z"/>
<path fill="#050505" opacity="1.000000" stroke="none" 
	d="
M59.221535,72.993958 
	C63.303276,72.993958 66.919327,72.993958 70.840157,72.993958 
	C71.289490,76.758347 70.006035,78.718071 66.274422,79.015068 
	C57.176605,79.739197 55.713329,79.065300 55.076065,73.296448 
	C56.305191,73.195412 57.530518,73.094688 59.221535,72.993958 
z"/>
<path fill="#0B0B0B" opacity="1.000000" stroke="none" 
	d="
M40.238853,70.235275 
	C45.853771,68.203705 47.337898,69.822968 46.660084,76.663277 
	C39.818420,77.334557 38.200199,75.848221 40.238853,70.235275 
z"/>
<path fill="#0C0C0C" opacity="1.000000" stroke="none" 
	d="
M79.044746,72.538513 
	C80.916924,71.195198 82.683708,69.927643 84.613724,69.588211 
	C85.105560,69.501709 87.059723,73.393692 86.731201,73.693687 
	C84.822197,75.436874 82.432404,76.653534 80.205162,78.048210 
	C79.803429,77.626198 79.401703,77.204193 78.999977,76.782181 
	C78.999977,75.507790 78.999977,74.233391 79.044746,72.538513 
z"/>
<path fill="#0B0B0B" opacity="1.000000" stroke="none" 
	d="
M16.951735,60.536781 
	C16.998367,62.115314 16.998367,63.271542 16.998367,64.687035 
	C13.952790,65.200462 10.717692,65.878105 9.421367,62.287495 
	C8.975101,61.051422 10.700682,59.031246 11.434116,57.369267 
	C13.257779,58.284336 15.081441,59.199406 16.951735,60.536781 
z"/>
</svg>